<svg id="Layer_1" data-name="Layer 1" xmlns="http://www.w3.org/2000/svg" xmlns:xlink="http://www.w3.org/1999/xlink" viewBox="0 0 300 300.02"><defs><style>.cls-1,.cls-11{fill:none;}.cls-2{fill:#9a0000;}.cls-3{clip-path:url(#clip-path);}.cls-10,.cls-4,.cls-5,.cls-6,.cls-9{fill:#991b1f;}.cls-10,.cls-11,.cls-4,.cls-5,.cls-6{stroke:#991b1f;stroke-miterlimit:10;}.cls-4{stroke-width:0.85px;}.cls-5{font-size:17.82px;stroke-width:0.85px;}.cls-10,.cls-5,.cls-6{font-family:Zapfino, Zapfino;}.cls-6{font-size:25.72px;stroke-width:0.73px;}.cls-7{letter-spacing:-0.02em;}.cls-8{letter-spacing:-0.11em;}.cls-10{font-size:26.43px;stroke-width:0.36px;}</style><clipPath id="clip-path"><rect class="cls-1" x="-7.57" y="-7.24" width="262.12" height="249.54"/></clipPath></defs><title>reddragon_logo-2</title><path class="cls-2" d="M246.38,94.42c-6.89.24-9.61-4.61-10.18-6.19-.34-.93-1.72-2.19-3.74-3.07-2.57-1.12-13.82-4.71-20.89-8.22-1-.49-2.09.42-1.63,1.34a35.87,35.87,0,0,0,2.27,3.88,1.07,1.07,0,0,1-1.33,1.53,22.85,22.85,0,0,0-5.06-.81c-1.64-.09-1.71,1.19-.84,1.84l.08.06a1,1,0,0,1-.86,1.84c-1.67-.16-6.1.41-9.37.89a1.11,1.11,0,0,0-.4,2.12c1.76.85,4.76.85,5.1,1.62.68,1.53-6.6,3.17-6.48,19.35,0,.84,2.59,16.81-13.1,17.07,0,0-50.76-.15-67.68-.15-2.41,0-2.79-.62-4-1.48,0,0-5.78-8.07-14.49-9.71-7.47-1.41-30.17-4.17-30.17-4.17-1.38,0-3.16.16-2.5,3.28.21,1,.39.87,2.5,6.08.76,1.88,2.9.42,4.16,2,2.25,2.73,3.66,8,4.88,9.12,2,1.78,4-3.13,12.67,15.85a16.36,16.36,0,0,0,1.77,3l.12.09c1.41.92,3,1.4,4.32.81a4.54,4.54,0,0,0,2.84-3.71c.11-1.74-1-3.42-2.42-3.58a.57.57,0,0,1-.48-.54.65.65,0,0,1,.36-.67,7.91,7.91,0,0,1,8.81,1c1.24.95,2.92,3.06,4,4.13a19.82,19.82,0,0,0,2.72,2.5c1.45.95,3.06,1.47,4.43.87a4.54,4.54,0,0,0,2.84-3.71c.11-1.74-1-3.42-2.42-3.58a.57.57,0,0,1-.48-.54.66.66,0,0,1,.36-.67,7.91,7.91,0,0,1,8.81,1c1.24.95,2.92,3.06,4,4.13a20,20,0,0,0,2.79,2.56c1.41.92,3,1.4,4.32.81a4.54,4.54,0,0,0,2.84-3.71c.11-1.74-1-3.42-2.42-3.58a.57.57,0,0,1-.48-.54.66.66,0,0,1,.36-.67,7.91,7.91,0,0,1,8.81,1c1.24.95,2.92,3.06,4,4.13a20.22,20.22,0,0,0,3.1,2.8,4.12,4.12,0,0,0,3.82.57,4.54,4.54,0,0,0,2.84-3.71c.11-1.74-1-3.42-2.42-3.58a.57.57,0,0,1-.48-.54.66.66,0,0,1,.36-.67,7.91,7.91,0,0,1,8.81,1c1.24.95,2.92,3.06,4,4.13a20,20,0,0,0,2.79,2.56c1.41.92,3,1.4,4.32.81a4.54,4.54,0,0,0,2.84-3.71c.11-1.74-1-3.42-2.42-3.58a.57.57,0,0,1-.48-.54.65.65,0,0,1,.36-.67,7.91,7.91,0,0,1,8.81,1c1.24.95,2.92,3.06,4,4.13a19.82,19.82,0,0,0,2.72,2.5c1.45.95,3.06,1.47,4.43.87a4.54,4.54,0,0,0,2.84-3.71c.11-1.74-1-3.42-2.42-3.58a.57.57,0,0,1-.48-.54.65.65,0,0,1,.36-.67,7.91,7.91,0,0,1,8.81,1c1.24.95,2.92,3.06,4,4.13a20,20,0,0,0,2.79,2.56c1.41.92,3,1.4,4.32.81a4.54,4.54,0,0,0,2.84-3.71c.11-1.74-1-3.42-2.42-3.58a.57.57,0,0,1-.48-.54.66.66,0,0,1,.36-.67c2.71-1.21,5.71-1.73,8.81,1,.62.54,0,0,1.46,1.37,5,.9,10.19-3,7-11.3s-9.11-15.82-16.46-23.74,6.54-11.47,5.68-10.44c-2.57,3.08-3.35,4.78-2.32,5.23,1.36.59,2.5-2.42,7-1.64.3.05,8.24,1.28,11.4,4.56a2.62,2.62,0,0,0,4.31-.81,3.61,3.61,0,0,0-1.21-4.16c-4.1-3.36-8.19-1.83-8.19-4.88,0-1.35,2.54-3.37,6-1.47,1.42.78,1.19,2.76,2.62,3.25s4.37-.41,5.35,1.58a3.86,3.86,0,0,1,.17.39,2.78,2.78,0,0,0,4.58.91,8.94,8.94,0,0,0,2.42-6.19C251.8,94.88,251.89,94.23,246.38,94.42Z"/><g class="cls-3"><path class="cls-4" d="M132.44,168.41a4.1,4.1,0,0,1-1.25,2.5,11,11,0,0,1-3.74,2.85,19.67,19.67,0,0,1-5.26,1.52q-1.29,1.92-2.61,4T117,183.43q-1.56,2.58-3.32,5.75t-3.23,6.15a.18.18,0,0,0,0,.13,0,0,0,0,0,0,0,.26.26,0,0,0,.18-.09,28.4,28.4,0,0,1,2.54-2.41,23.76,23.76,0,0,1,3.43-2.36,1.28,1.28,0,0,1,.67-.22.7.7,0,0,1,.62.62,1.61,1.61,0,0,1-.45.76,10.85,10.85,0,0,0-1,1.56q-.13.27-.56,1t-.89,1.56a15.22,15.22,0,0,0-.82,1.8,4.8,4.8,0,0,0-.36,1.69,1.15,1.15,0,0,0,.33.91,1.28,1.28,0,0,0,.87.29,3.92,3.92,0,0,0,1.89-.56,11.14,11.14,0,0,0,2-1.4,18.07,18.07,0,0,0,1.76-1.78q.8-.94,1.34-1.65c.12-.12.21-.18.27-.18s.09,0,.09.13a.36.36,0,0,1-.09.27q-.85,1.07-1.76,2.09a14.9,14.9,0,0,1-1.94,1.83,10.28,10.28,0,0,1-2.18,1.31,6.11,6.11,0,0,1-2.5.51,2.13,2.13,0,0,1-1.43-.49,1.48,1.48,0,0,1-.58-1.16,2.42,2.42,0,0,1,.36-1.2l1.83-3.23,1.6-2.87a.5.5,0,0,0,0-.22.12.12,0,0,0-.13-.13.78.78,0,0,0-.22.09,15.81,15.81,0,0,0-2.87,2.18,22.69,22.69,0,0,0-2.38,2.63,5.35,5.35,0,0,0-1.11,2.09c0,.15-.15.22-.36.22a.24.24,0,0,1-.27-.18,1.2,1.2,0,0,0-.4-.56.58.58,0,0,1-.27-.47,1.48,1.48,0,0,1,.29-.89q.29-.4.51-.76.67-1.11,1.63-2.85t2-3.77q1.09-2,2.21-4.14l2-3.9q.89-1.65,1.76-3.14t1.76-2.83q-3.12.49-5.57.85t-4.66.62q-2.21.27-4.34.45t-4.59.31q-2.85.13-5.24.45a29.82,29.82,0,0,0-4.39.89,17,17,0,0,0-3.72,1.56,16.12,16.12,0,0,0-3.23,2.45,15.92,15.92,0,0,0-3.32,4.63,14.48,14.48,0,0,0-1.31,6.37,18.3,18.3,0,0,0,.16,2.45,3.35,3.35,0,0,0,.6,1.69c0,.12-.1.18-.31.18a6.25,6.25,0,0,1-1.43-1.27,3.23,3.23,0,0,1-.76-2.21,11.91,11.91,0,0,1,.49-3.28,14.52,14.52,0,0,1,1.29-3.14,29.71,29.71,0,0,1,1.87-2.9,23.13,23.13,0,0,1,2.5-2.87,23.53,23.53,0,0,1,3.25-2.65,22.32,22.32,0,0,1,4.1-2.18,27.68,27.68,0,0,1,7.33-1.94,65.26,65.26,0,0,1,8-.47l1.36,0,1.4,0q2.54,0,5.32-.18t5.64-.45q.4-.62.8-1.16t.8-1q.8-.94,1.76-1.94a16.65,16.65,0,0,1,2.09-1.85,12,12,0,0,1,2.36-1.38,6.34,6.34,0,0,1,2.56-.53,2.25,2.25,0,0,1,1.29.33A1.09,1.09,0,0,1,132.44,168.41Zm-22.32,9.76c0,.12-.1.18-.31.18a4.46,4.46,0,0,0-2.85,1.47,18.18,18.18,0,0,0-2.23,3l-1.65,2.76q-.94,1.56-1.83,3.1l-1.67,2.9q-.78,1.36-1.23,2.16-.76,1.34-1.36,2.18a14.4,14.4,0,0,1-1.14,1.43,6.13,6.13,0,0,1-1,.91l-1,.65c-.06.06-.09.1-.09.13s.09.09.27.09q1.29,0,3.07.09t3.39.09a3.72,3.72,0,0,0,1.6-.27c.24,0,.36.06.36.18s-.06.1-.18.13q-1.34.45-2.5.74a12.63,12.63,0,0,1-3,.29H91a6.76,6.76,0,0,0-1,.07,3.94,3.94,0,0,0-.82.2c-.12,0-.18-.07-.18-.22a3.65,3.65,0,0,0,1.09-.71,1.33,1.33,0,0,1,.87-.45,15.23,15.23,0,0,0,1.76-.22,3,3,0,0,0,1.76-1,11.42,11.42,0,0,0,1.25-1.69q.67-1.07,1.38-2.41l2-3.9q.91-1.76,1.76-3.25t1.72-2.81q.87-1.31,1.85-2.52a12.7,12.7,0,0,1,2.32-2.18,6.46,6.46,0,0,1,2.94-1.29c.21,0,.31.07.31.22ZM131.33,169a1.43,1.43,0,0,0-.38-1,1.37,1.37,0,0,0-1-.4,3.11,3.11,0,0,0-1.89.65,10,10,0,0,0-1.54,1.4q-.53.58-1.09,1.29l-1.09,1.4q-.53.69-1,1.34l-.76,1.09a20.36,20.36,0,0,0,4.39-1.23,8.81,8.81,0,0,0,3.59-2.61,3.52,3.52,0,0,0,.62-1A2.64,2.64,0,0,0,131.33,169Z"/><text class="cls-5" transform="translate(118.14 200.36)">e</text></g><text class="cls-6" transform="translate(83.49 242.11)">D<tspan class="cls-7" x="36.84" y="0">r</tspan><tspan x="48.74" y="0">a</tspan><tspan class="cls-8" x="67.06" y="0">g</tspan><tspan x="79.61" y="0">on</tspan></text><path class="cls-9" d="M115,268.63a13.59,13.59,0,0,1,.63-5.52,18.42,18.42,0,0,1,2.52-5.09A22.83,22.83,0,0,1,127,251a38.71,38.71,0,0,1,10.86-3.12,67.19,67.19,0,0,1,11.14-.62,104.38,104.38,0,0,1,11,.94c1.82.26,3.62.61,5.43.91s3.58.75,5.37,1.15c3.56.84,7.08,1.79,10.55,2.91,1.73.58,3.47,1.13,5.17,1.77l2.57.93,2.54,1-.06.21c-7-2-14-3.76-21.1-5.14a128.62,128.62,0,0,0-21.54-2.5,67.76,67.76,0,0,0-10.82.48,39.33,39.33,0,0,0-10.45,2.66,22.47,22.47,0,0,0-8.7,6.21,16.28,16.28,0,0,0-3.82,9.87Z"/><text class="cls-10" transform="translate(135.02 204.05)">Red</text><path class="cls-9" d="M187,255a29.68,29.68,0,0,0,5.09,1.66,18.69,18.69,0,0,0,5.32.5,7.89,7.89,0,0,0,4.87-1.9,8.12,8.12,0,0,0,2.23-4.79,7.24,7.24,0,0,1-7.07,7.06,19.13,19.13,0,0,1-5.46-.33,30.25,30.25,0,0,1-5.26-1.53Z"/><path class="cls-2" d="M108.79,110.12,95.5,108c-2.39-.34-3.08-1.78-2.37-3.38,2.11-4.7,5.38-12,5.38-25.5,0-10.61-2-16-3.64-19.53a2.45,2.45,0,0,1,2.35-3.41h12.14a2.64,2.64,0,0,1,1.89.79c1.92,2,6.2,7,6.2,22.15,0,15.6-4.54,26.08-6.36,29.67A2.57,2.57,0,0,1,108.79,110.12Z"/><path class="cls-2" d="M186,67.63a12.7,12.7,0,0,0-.31-1.36,32.56,32.56,0,0,0-1-3.35c-1-3-1.84-4.87-1.68-6.41s5-6.16,3.9-9c-.38-1-2.17-1.54-3-1.52-2.52,0-5.63,2.56-5.91,2.84a4.79,4.79,0,0,0-1.16-.23,4.14,4.14,0,0,0-3.43,1.6c-1.73-2.66-5.25-2.75-7.78-.89-2.16,1.42-.11,5,2,3.45.92-.71,2.37-1.09,2.64.44a1.79,1.79,0,0,1-.59,1.53,4.12,4.12,0,0,1-1,.68,12.18,12.18,0,0,1-4.4.27,8,8,0,0,1-3.42-1.24,12.38,12.38,0,0,1-4.74-5.91,6.11,6.11,0,0,1,.11-4.87A6.56,6.56,0,0,1,158,41.35a1.77,1.77,0,0,1,.88-.29c1.51,0,1.24,1.64.11,2.3-2,1.53-.05,4,2,2.48,2.54-1.86,4.52-4.56,2.26-7.4-1.19-1.52-3.17-2.66-4.81-2.43,0-.5,0,0-.14-.52a5.31,5.31,0,0,0-3.43-3.78c.36-2.33-.31-4.39-2.79-4.3-2.66.1-3.16,2-2.4,4.21a5.69,5.69,0,0,0-3.81,4.57,4.7,4.7,0,0,0-4.61,1.75c-2.21,2.84-.59,6.18,1.94,8,2.1,1.59,4.37-2.42,2-3.56-.4-.2-.75-.44-.81-.82a1.13,1.13,0,0,1,1.73-1.09,5.71,5.71,0,0,1,1.67,1.86,6.17,6.17,0,0,1,.32,5.25,12.39,12.39,0,0,1-4.75,5.91c-1.83,1.37-3.72,2.46-6.09,2.24a4.86,4.86,0,0,1-2.48-.71c-1.83-1.37-.49-3.88,1.78-2.19,2,1.7,4.1-1.91,2-3.45-2.58-1.9-6.22-1.77-7.9,1.06a4.31,4.31,0,0,0-3.32-1.56,5.36,5.36,0,0,0-1.33.26,6.19,6.19,0,0,0-1.21-.9c-1.4-.77-5.42-3.27-6.86-.91s.1,3.92,3.37,8.06c2.36,3,4.73,14.71,4.73,23.68,0,13.75-4,27.67-6.46,34.94a3.89,3.89,0,0,0,3.66,5.14h52.85a3.86,3.86,0,0,0,3.63-2.57c2.2-6.1,7.38-22.13,7.38-37.52A49.58,49.58,0,0,0,186,67.63ZM152,48.77a15,15,0,0,0,4.46,7.41H146.7l.7-.56A15.32,15.32,0,0,0,152,48.77Z"/><path class="cls-11" d="M115.86,270.19A13.47,13.47,0,0,1,120,256.61"/></svg>