<?xml version="1.0" encoding="utf-8"?>
<!-- Generator: Adobe Illustrator 22.0.1, SVG Export Plug-In . SVG Version: 6.00 Build 0)  -->
<svg version="1.1" id="Layer_1" xmlns="http://www.w3.org/2000/svg" xmlns:xlink="http://www.w3.org/1999/xlink" x="0px" y="0px"
	 viewBox="0 0 495.9 498.6" style="enable-background:new 0 0 495.9 498.6;" xml:space="preserve">
<style type="text/css">
	.st0{fill:#BBAAAA;}
</style>
<g>
	<path class="st0" d="M491.3,248.8c0,0.1-0.1,0.1-0.1,0.2c-0.1,0.6-0.1,1.6-0.5,1.9c-0.5,0.3-1.4,0.2-2.1,0.2c-2.6,0-5.2,0.1-7.8,0
		c-4.9-0.2-9.5,1.1-14.2,2c-17.7,3.3-35.4,6.6-53.1,9.9c-6.5,1.2-12.9,2.5-19.4,3.6c-1,0.2-1.3,0.6-1.4,1.5
		c-4.1,31.5-17.1,58.9-39,81.9c-21.1,22.2-46.8,36.3-76.8,42.5c-2.5,0.5-5,0.9-7.6,1.3c-0.9,0.1-1.2,0.4-1.4,1.3
		c-1.8,10-3.7,19.9-5.6,29.9c-3.1,16.3-6.1,32.7-9.2,49c-1.2,6.2-2.3,12.5-3.5,18.7c-0.2,0-0.3,0-0.5,0c-0.7-0.1-1.5-0.3-2.4-0.4
		c0-0.4-0.1-0.8-0.1-1.2c0-3.1-0.1-6.2,0-9.4c0.2-4.5-1-8.7-1.8-13c-2.7-14.7-5.5-29.4-8.3-44.2c-1.8-9.8-3.7-19.5-5.5-29.3
		c-0.1-0.8-0.6-0.9-1.2-1c-22.4-2.9-43.1-10.4-61.9-22.9c-21.4-14.2-38-32.7-49.7-55.5c-7.4-14.3-12.2-29.5-14.4-45.5
		c-0.1-0.7-0.4-0.9-1.1-1c-8.4-1.6-16.7-3.1-25.1-4.7c-16.1-3-32.2-6-48.3-9.1c-7.5-1.4-14.9-2.8-22.4-4.2c-2-0.4-2-0.4-1.8-2.4
		c0-0.3,0.1-0.5,0.2-0.9c1.2,0,2.4-0.1,3.6,0c7.6,0.5,15-0.8,22.5-2.2c13.9-2.7,27.8-5.2,41.7-7.9c9.8-1.8,19.5-3.7,29.3-5.5
		c1.2-0.2,1-1,1-1.7c0.9-7,2.3-14,4.2-20.8c6.6-23.4,18.3-43.8,35.2-61.4c16.8-17.5,36.9-30.1,60-37.7c8-2.6,16.1-4.5,24.4-5.7
		c0.8-0.1,1-0.4,1.1-1.1c2.5-13.3,5-26.5,7.5-39.8c2.9-15.6,5.9-31.2,8.8-46.7c0.7-3.6,1.4-7.3,2.1-11.1c0.9,0.1,1.8,0.2,2.8,0.3
		c0,0.5,0.1,0.9,0.1,1.3c0,2.8,0.1,5.7,0,8.5c-0.2,4.9,1.1,9.5,2,14.2c3.1,16.9,6.3,33.8,9.5,50.6c1.4,7.4,2.8,14.8,4.1,22.3
		c0.1,0.8,0.4,1.1,1.3,1.2c15.8,1.9,30.9,6.4,45.2,13.4c28.5,14,50.3,35.1,65.3,63.1c7.9,14.7,12.9,30.5,15.3,47
		c0.1,0.8,0.4,1.1,1.2,1.3c10.4,1.9,20.7,3.9,31.1,5.8c15.5,2.9,31.1,5.9,46.6,8.8c6.7,1.3,13.3,2.5,20,3.7
		C491.3,248.3,491.3,248.5,491.3,248.8z M123.4,273.2c6,29.6,20.3,54.2,43.2,73.5c17.6,14.9,37.9,24.1,60.8,28.1
		c-4.5-24.2-9-48.1-13.6-72.3c-18.3,12.5-36.4,24.9-54.5,37.3c-0.7-0.8-1.2-1.5-2-2.4c1.2-1.1,2.4-2.2,3.5-3.3
		c1.7-1.8,3.7-3.4,5.1-5.4c9.1-13.1,18-26.2,27-39.4c0.6-0.9,1.2-1.8,1.8-2.7C170.9,282.1,147.3,277.6,123.4,273.2z M244.4,251.1
		c-74.1,0-147.9,0-221.9,0c0.5,0.2,0.7,0.3,0.9,0.3c16.6,3.1,33.2,6.2,49.8,9.3c22.4,4.2,44.8,8.4,67.2,12.6
		c22.6,4.2,45.1,8.5,67.7,12.7c0.9,0.2,1.4-0.1,2-0.6c11.1-11.1,22.1-22.1,33.2-33.1C243.6,251.9,243.9,251.6,244.4,251.1z
		 M249.7,475h0.1c0.1-0.4,0.2-0.8,0.3-1.1c1.7-9.1,3.4-18.2,5.1-27.3c4.9-26.2,9.9-52.4,14.8-78.5c4.9-26.2,9.8-52.4,14.8-78.6
		c0.2-0.9,0-1.4-0.6-2c-11.1-11.1-22.3-22.2-33.4-33.3c-0.1-0.1-0.2-0.2-0.3-0.3c-0.2-0.2-0.5-0.3-0.8-0.6
		C249.7,327.4,249.7,401.2,249.7,475z M473.8,248v-0.1c-0.5-0.1-1-0.2-1.5-0.3c-11.3-2.1-22.7-4.3-34-6.4c-16.3-3.1-32.7-6.1-49-9.2
		c-16.4-3.1-32.8-6.2-49.2-9.2c-17.3-3.2-34.6-6.5-51.9-9.8c-0.9-0.2-1.4,0-2,0.6c-11.1,11.2-22.3,22.3-33.4,33.4
		c-0.3,0.3-0.5,0.6-0.9,1C326,248,399.9,248,473.8,248z M246.6,245.9c0-74.1,0-147.9,0-221.8c-0.2,0.5-0.3,1-0.4,1.5
		c-2.6,13.9-5.2,27.7-7.8,41.6c-3.1,16.4-6.2,32.7-9.2,49.1c-3,16-6,31.9-9,47.9c-2.8,15.1-5.7,30.2-8.5,45.3
		c-0.2,0.9,0,1.4,0.6,2.1c11.1,11.1,22.2,22.2,33.4,33.3C245.9,245.2,246.2,245.4,246.6,245.9z M157.6,160.5
		c-18.6,19.2-30.1,41.8-34.7,68.1c24.1-4.5,48-9,72-13.5C182.5,196.9,170.1,178.8,157.6,160.5z M302.3,283.8
		c12.4,18.1,24.6,36.1,36.9,54.1c9-9.3,16.4-19.7,22.2-31.1c5.8-11.4,9.8-23.4,11.9-36.3C349.5,275,326,279.4,302.3,283.8z
		 M271.8,374.2c10.3-1.8,23.4-5.9,36.1-12.7c10.2-5.4,28.9-19.6,30.3-23.1c-0.5,0.4-1,0.7-1.6,1.1c-2.3-2.3-4.6-4.7-7-7
		c-0.5-0.5-1-0.9-1.6-1.3c-12.1-8.3-24.2-16.6-36.3-24.9c-2.1-1.5-4.3-2.9-6.5-4.4C280.9,326.1,276.4,350.1,271.8,374.2z
		 M282.4,195.2c18.1-12.4,36-24.6,53.9-36.9c-9.3-9-19.6-16.3-31-22.1s-23.4-9.7-36.2-11.8C273.6,148.1,278,171.5,282.4,195.2z
		 M300.8,212.3c24.1,4.5,48,9,72.1,13.5c-5-25.3-16.4-47-34.3-65.3c-2.3,2.3-4.4,4.4-6.5,6.6c-0.6,0.6-1.1,1.2-1.6,1.9
		c-7.7,11.2-15.3,22.4-23,33.5C305.3,205.7,303.1,208.9,300.8,212.3z M224.6,124.8c-25,4.9-46.4,16.1-64.7,33.6c2.4,2.4,4.7,4.7,7,7
		c0.5,0.4,1,0.9,1.5,1.2c11.5,7.9,23.1,15.8,34.7,23.7c2.7,1.8,5.4,3.7,8.3,5.6C215.7,172.1,220.1,148.6,224.6,124.8z M209.2,212.4
		c-1.2-1.4-2.2-2.6-3.3-3.7c-5.7-5.7-11.4-11.4-17-17.1c-6.1-6.1-12.2-12.3-18.4-18.4c-0.3-0.3-0.6-0.5-0.9-0.8
		c0.1,0.5,0.3,0.8,0.5,1c4.4,6.5,8.8,12.9,13.3,19.4c4.7,6.9,9.5,13.9,14.2,20.8c0.2,0.4,0.8,0.8,1.2,0.7
		C202.1,213.8,205.4,213.1,209.2,212.4z M324.6,170.1c-0.2,0.1-0.2,0.1-0.3,0.1c-13.5,9.3-27,18.5-40.5,27.8
		c-0.3,0.2-0.6,0.9-0.5,1.2c0.4,2.4,0.9,4.9,1.3,7.3c0.2,1,0.4,2,0.6,3C298.3,196.4,311.4,183.3,324.6,170.1z M172.1,327.1
		c0,0.1,0.1,0.1,0.1,0.2c0.3-0.2,0.7-0.4,1-0.6c7.4-5.1,14.9-10.2,22.3-15.3c5.6-3.8,11.1-7.6,16.7-11.5c0.4-0.3,0.9-0.8,0.8-1.1
		c-0.6-3.3-1.2-6.7-1.9-10.1c-0.9,0.6-1.8,1.1-2.4,1.8c-11.9,11.9-23.9,23.8-35.8,35.8C172.6,326.5,172.4,326.8,172.1,327.1z
		 M288.3,286.5c12.8,12.8,25.6,25.6,38.4,38.4c-0.2-0.2-0.4-0.6-0.7-0.9c-3.5-5.1-6.9-10.2-10.4-15.2c-5.3-7.8-10.6-15.6-15.9-23.4
		c-0.4-0.6-0.7-0.9-1.5-0.8C294.9,285.2,291.5,285.8,288.3,286.5z"/>
</g>
</svg>
