<svg xmlns="http://www.w3.org/2000/svg" viewBox="0 0 70.28 87.04">
	<defs>
		<style>.cls-1{fill:#fffcfc;}</style>
	</defs>
	<title>Asset 2</title>
	<g id="Layer_2" data-name="Layer 2">
		<g id="Layer_1-2" data-name="Layer 1">
		<path class="cls-1" d="M27.5,52.5a25,25,0,1,1,25-25A25,25,0,0,1,27.5,52.5Z"/>
		<path d="M27.5,5A22.5,22.5,0,1,1,5,27.5,22.53,22.53,0,0,1,27.5,5m0-5A27.5,27.5,0,1,0,55,27.5,27.5,27.5,0,0,0,27.5,0Z"/>
		<path d="M68,68.94A9.1,9.1,0,0,0,59.27,65a4.71,4.71,0,0,0-.67.15c1-3.84-2.86-9.79-7-7.41-3.67,2.13-3.23,8.85-1,11.72a5,5,0,0,0,3.52,2,11.08,11.08,0,0,0-2.27,1.88c-2.52,2.85-1.8,6.76.25,9.71a8.89,8.89,0,0,0,10.72,3.33C70.35,83.94,72.4,75.13,68,68.94ZM59,81.05a3.55,3.55,0,0,1-2.38-2.17c-.19-.87-.06-1.2.23-1.45.38,2.54,4.4,3.72,5.61.72a9,9,0,0,0,.79-5.36,5.42,5.42,0,0,1,.59,1C65.26,76.93,63.28,81.93,59,81.05Z"/><rect x="45.58" y="44.52" width="4.69" height="16.22" transform="translate(-21.17 35.53) rotate(-33.78)"/>
		</g>
	</g>
</svg>